<?xml version="1.0" ?><svg data-name="Layer 2" id="Layer_2" viewBox="0 0 35 35" xmlns="http://www.w3.org/2000/svg"><path d="M23.56,17.5a1.26,1.26,0,0,1-.74-.24L15.07,11.6a1.25,1.25,0,0,1,1.47-2l7.75,5.66A1.26,1.26,0,0,1,24.57,17,1.27,1.27,0,0,1,23.56,17.5Z"/><path d="M8.57,6.56a1.26,1.26,0,0,1-.74-.24L2.6,2.51A1.25,1.25,0,0,1,2.33.76,1.24,1.24,0,0,1,4.07.49L9.3,4.3a1.26,1.26,0,0,1,.28,1.75A1.27,1.27,0,0,1,8.57,6.56Z"/><path d="M12.08,25.79a1.25,1.25,0,0,1-1.25-1.25v-12a1.25,1.25,0,0,1,2.5,0v12A1.25,1.25,0,0,1,12.08,25.79Z"/><path d="M12.07,13.83A5.73,5.73,0,1,1,17.81,8.1,5.74,5.74,0,0,1,12.07,13.83Zm0-9A3.23,3.23,0,1,0,15.31,8.1,3.23,3.23,0,0,0,12.07,4.87Z"/><path d="M12.07,34.75A5.73,5.73,0,1,1,17.81,29,5.74,5.74,0,0,1,12.07,34.75Zm0-9A3.23,3.23,0,1,0,15.31,29,3.23,3.23,0,0,0,12.07,25.79Z"/><path d="M27.18,24.62a5.73,5.73,0,1,1,5.73-5.73A5.74,5.74,0,0,1,27.18,24.62Zm0-9a3.23,3.23,0,1,0,3.23,3.23A3.23,3.23,0,0,0,27.18,15.66Z"/></svg>